<svg width="106" height="124" viewBox="0 0 106 124" fill="none" xmlns="http://www.w3.org/2000/svg">
<g clip-path="url(#clip0_13_25)">
<path d="M102.452 41.6841C108.508 33.7268 106.445 22.4284 99.0558 16.2916C91.5408 10.0521 80.9663 10.5753 73.4337 17.5482C70.5511 20.217 68.1594 23.2738 66.0752 26.5955C65.3462 27.7567 64.3607 29.0068 62.8564 27.9114C61.5762 26.9779 62.3228 25.7019 62.9768 24.649C65.0387 21.3329 67.2803 18.139 69.974 15.3036C71.4986 13.6988 71.8932 12.1106 70.8947 10.0262C65.7492 -0.724045 49.6947 -3.45118 41.2025 4.90062C36.4339 9.58999 34.5638 15.2341 34.6323 21.7394C34.6712 25.5018 33.8755 28.6327 29.6331 30.0347C18.5667 33.6925 12.2781 41.6628 9.79198 52.851C9.31031 55.016 8.6721 57.0774 7.22616 58.8294C-1.92188 69.9139 -1.90891 81.8957 4.6029 93.9562C15.5072 114.152 33.2438 123.238 47.4948 123.989C89.4492 124.672 112.253 91.8893 100.285 61.112C97.2801 53.3835 97.5154 48.1699 102.452 41.6832L102.452 41.6841ZM28.5419 72.7105C27.6462 73.292 26.7134 73.2689 26.2957 73.2457C23.9707 73.1179 22.4099 71.7085 22.3849 69.2388C22.3599 66.7126 23.9429 65.4014 26.3133 65.3542C26.7514 65.3458 27.7407 65.3486 28.6614 66.0107C30.1213 67.0608 30.1806 68.9027 30.1806 69.3027C30.1806 69.587 30.1518 71.665 28.541 72.7105H28.5419ZM51.6696 88.5306C50.4126 89.7956 48.7527 90.229 46.6945 90.2966C46.1702 90.2253 45.3893 90.0632 44.5455 89.6428C42.8494 88.7983 42.9115 87.9158 41.5665 87.35C40.2141 86.7814 39.7954 87.5231 37.5121 87.0212C36.6831 86.8388 35.8865 86.6758 35.0399 86.0887C34.8203 85.9369 32.7492 84.5154 32.6389 82.1929C32.6278 81.955 32.5454 80.2168 33.5578 79.6482C33.6134 79.6167 34.0348 79.3927 34.536 79.4927C35.1501 79.6149 35.5864 80.177 35.8958 80.79C36.3339 81.6596 37.3056 82.5569 37.9901 82.9689C39.6463 83.9672 40.9626 82.1541 43.0986 82.8921C44.9484 83.532 44.451 85.0618 46.3323 85.6035C47.178 85.847 49.4409 86.2063 51.2185 85.8276C52.5921 85.535 52.7237 87.4722 51.6696 88.5325V88.5306ZM68.1538 83.1634C68.1492 83.3894 68.0751 85.2692 66.531 86.3536C65.5741 87.0259 64.5709 87.0351 64.0855 87.0231C61.5596 86.9583 59.9024 85.4581 59.9506 82.8588C59.9951 80.4418 61.5605 79.0084 63.9781 79.0408C64.4236 79.0472 65.6658 79.0463 66.7542 79.9649C68.1705 81.1614 68.1594 82.9245 68.1547 83.1625L68.1538 83.1634Z" fill="white"/>
</g>
<defs>
<clipPath id="clip0_13_25">
<rect width="106" height="124" fill="white"/>
</clipPath>
</defs>
</svg>
