<svg width="146" height="93" viewBox="0 0 146 93" fill="none" xmlns="http://www.w3.org/2000/svg">
<g clip-path="url(#clip0_19_47)">
<path d="M31.5108 25.8954C28.47 27.7107 25.8725 29.9646 23.7714 32.5497C21.6704 35.1348 21.0068 37.8837 21.7818 40.7435C22.4454 42.613 23.4953 44.4284 24.9885 46.1871C26.4816 47.9458 28.3611 49.8166 30.7382 51.8512C33.0596 53.8858 35.2709 56.2504 37.2617 59.0548C39.3071 61.8591 40.3025 64.9935 40.3025 68.4026C40.3025 71.8116 39.0867 74.8918 36.6538 77.6407C34.221 80.3909 30.6837 82.4255 26.1498 83.7445C21.5614 85.119 17.2492 85.5599 13.104 85.0648C8.95762 84.6251 5.97258 83.5253 4.09315 81.8749C2.26943 80.1704 1.66152 78.19 2.37962 75.9904C3.15343 73.7908 5.31019 72.691 8.95886 72.691C10.0645 72.7464 11.4462 72.691 13.2154 72.5259C14.9847 72.3055 16.6982 71.9212 18.3015 71.3165C19.9049 70.6564 20.9548 69.7216 21.5082 68.5122C22.1161 66.8076 21.6184 65.2127 20.0708 63.6732C18.5789 62.1337 16.5323 60.4834 13.9892 58.7235C11.8882 57.2936 9.78839 55.6445 7.68734 53.8291C5.58629 52.0692 3.76257 49.9792 2.32514 47.6699C0.884001 45.3619 0.110191 42.7226 0 39.7533C0.0557143 34.3096 1.71352 29.0298 4.97467 23.8054C8.23582 18.6364 11.9959 14.1275 16.2525 10.2776C20.5648 6.48302 24.2679 3.84371 27.4189 2.52345C30.4039 1.36821 33.0027 1.58867 35.1582 3.18358C37.315 4.72307 38.9728 6.9227 40.0784 9.72703C41.184 12.5314 41.6817 15.1165 41.5703 17.5907C41.4601 20.065 40.6306 21.6045 39.083 22.2105C37.0376 22.8152 34.5503 24.0258 31.5095 25.8954H31.5108Z" fill="#D4687E"/>
<path d="M57.1419 27.191C54.8861 27.1418 52.8259 26.5568 50.9625 25.3855C49.1475 24.2143 48.0691 22.6538 47.7744 20.8003C47.6766 19.9222 47.824 18.3605 48.1174 16.2139C48.4121 14.0672 48.8528 11.774 49.4409 9.33541C50.029 6.89686 50.7161 4.84749 51.5011 3.13927C52.3839 1.52958 53.9042 0.504891 56.0127 0.16374C58.1707 -0.177412 60.4265 0.0171801 62.7814 0.700714C65.135 1.38425 67.1457 2.45696 68.7156 3.9201C70.2843 5.38323 70.9714 7.09145 70.7263 9.09155C70.5306 10.1655 69.893 11.8232 68.8629 14.0672C67.8328 16.3111 66.7049 18.5071 65.5287 20.6537C64.303 22.8004 63.3707 24.2635 62.6848 25.0936C61.214 26.5568 59.3506 27.2896 57.1431 27.191H57.1419Z" fill="#D4687E"/>
<path d="M124.791 22.3362C124.596 18.7264 123.566 15.6043 121.702 12.9206C119.79 10.237 116.896 8.53002 112.924 7.79845C108.706 7.26148 104.832 8.38346 101.351 11.2137C100.51 11.8972 96.7089 14.8074 92.5229 22.0443C89.7731 26.797 88.7492 30.1149 88.4038 29.9967C88.0126 29.8624 89.1801 25.595 90.5618 20.9223C91.5424 17.6044 92.6703 14.7262 93.995 12.3356C94.6327 11.0671 94.2402 9.79856 92.8176 8.53002C91.395 7.31074 89.5317 6.28606 87.2264 5.50523C84.9706 4.7244 82.8126 4.33399 80.8502 4.43128C78.889 4.48055 77.6621 5.16285 77.2213 6.48065C75.4063 11.7001 74.1805 18.4333 73.4946 26.6283C72.8087 34.8245 72.9065 43.1181 73.6903 51.6062C73.7893 52.6764 73.9044 53.7282 74.0344 54.7615C73.9007 55.0953 73.7633 55.4328 73.6222 55.7788C72.3965 58.9009 70.9244 61.6818 69.2566 64.0724C67.5889 66.4136 65.9224 67.5849 64.2052 67.5849C62.5375 67.5356 61.2623 66.5122 60.429 64.5601C59.6441 62.6092 59.2516 59.9256 59.2516 56.5597C59.3011 53.1937 59.4967 50.217 59.9387 47.6318C60.3312 44.9975 60.6246 42.7535 60.8215 40.8014C60.9688 38.8494 60.429 37.2889 59.1055 36.215C57.7807 35.093 55.9174 34.4095 53.5142 34.2149C51.0628 33.971 48.8058 34.3122 46.6973 35.1423C44.5393 35.9711 43.1662 38.1671 42.5286 41.7276C41.891 45.2401 41.6954 49.68 41.891 54.8995C42.1361 60.1682 42.8716 64.6561 44.1963 68.2672C45.4716 71.877 47.5801 74.8045 50.4252 77.0484C53.2691 79.2924 56.8992 80.2678 61.2635 79.9267C65.5795 79.5855 69.2084 77.6827 72.0523 74.1209C73.767 71.973 75.2849 69.665 76.6085 67.1982C77.2696 69.3633 78.0298 71.404 78.8878 73.3155C79.5749 74.632 80.8006 75.3648 82.5662 75.5102C84.3812 75.7048 86.2446 75.4609 88.1574 74.8266C90.0703 74.1924 91.6389 73.3142 92.7681 72.2415C93.896 71.1195 94.1907 69.9003 93.6013 68.5825C91.7863 64.9727 90.8552 60.6301 90.8552 55.7037C90.8552 50.7773 91.4928 45.8005 92.7681 40.9221C94.0916 35.9945 95.8571 31.7997 98.0151 28.3353C100.221 24.8228 102.576 22.7254 105.175 21.9926C107.038 21.6021 108.314 22.1391 108.951 23.505C109.637 24.8708 109.834 26.6763 109.687 28.9203C109.599 30.2528 109.468 31.6088 109.112 33.1237C108.829 34.3294 108.556 34.9994 108.363 35.6041C108.085 36.4773 106.632 41.0244 108.431 43.6119C110.058 45.952 114.429 46.8165 117.13 45.3337C119.307 44.139 120.596 40.4159 123.174 32.9685C123.212 32.8614 123.266 32.7037 123.333 32.5017C123.607 31.6692 124.099 30.0459 124.439 28.052C124.552 27.3795 124.648 26.6566 124.716 25.8721C124.816 24.7008 124.842 23.5222 124.794 22.3337L124.791 22.3362ZM119.412 36.1066C119.331 36.5463 119.07 37.2261 118.648 38.1461C118.226 39.0661 117.764 39.9664 117.281 40.8458C116.778 41.7264 116.397 42.3261 116.115 42.6661C115.512 43.2659 114.748 43.5664 113.843 43.5257C112.918 43.506 112.074 43.2659 111.31 42.7855C110.566 42.3052 110.124 41.666 110.004 40.9061C109.963 40.5465 110.023 39.9061 110.145 39.0267C110.265 38.1474 110.447 37.2064 110.687 36.2076C110.928 35.2075 111.21 34.3676 111.531 33.668C111.893 33.0079 112.517 32.5879 113.381 32.4488C114.265 32.3084 115.19 32.3884 116.156 32.6692C117.12 32.9488 117.945 33.3885 118.589 33.9895C119.232 34.5893 119.513 35.2888 119.413 36.1091L119.412 36.1066Z" fill="#D4687E"/>
<path d="M121.165 45.692C121.47 45.9347 122.017 46.5492 121.279 53.3969C120.977 56.1951 120.957 56.8244 120.459 59.7408C120.05 62.1424 119.868 64.9061 119.822 68.0331C119.822 71.1601 120.186 73.6516 120.915 75.4645C121.689 77.2775 122.874 78.2282 124.422 78.2738C126.017 78.2738 127.566 77.1863 129.115 75.0113C130.664 72.7908 132.031 70.2081 133.17 67.3077C134.353 64.4073 135.264 61.9614 135.948 59.9674C136.677 57.9735 137.361 55.934 138.043 53.759C138.498 52.536 138.817 51.5384 139.09 50.8586C139.592 49.2723 140.957 48.5481 143.145 48.6836C145.377 48.7747 146.288 49.4989 145.923 50.8586C144.966 54.2565 143.827 57.7912 142.552 61.5069C141.277 65.2226 139.774 69.1194 138.133 73.1972C136.493 77.3206 134.352 81.0363 131.71 84.3443C129.068 87.6524 125.698 89.4197 121.689 89.7362C117.634 90.054 114.264 89.1475 111.622 87.0625C108.98 84.9786 107.021 82.2592 105.836 78.9056C104.606 75.552 103.923 71.3831 103.696 66.4899C103.64 65.2854 103.621 64.1918 103.634 63.1351C103.662 60.8517 103.782 57.902 104.287 54.2553C105.043 48.8018 105.42 46.0751 106.811 45.4162C108.46 44.6353 109.48 46.5123 113.085 46.782C117.558 47.1158 119.674 44.5036 121.165 45.6896V45.692Z" fill="#D4687E"/>
<path d="M99.2532 84.3652C98.2417 86.0771 96.2323 86.5193 94.4865 86.8777C93.35 87.1104 90.6794 87.523 86.7757 86.5538C84.0333 85.8727 79.3248 84.7051 77.1396 80.7911C76.471 79.594 75.5833 77.3254 76.4326 76.4658C77.4466 75.4386 79.5464 76.9621 83.3251 77.3131C89.5243 77.8883 91.4557 74.3659 95.4374 76.0261C97.3379 76.8193 99.2297 78.594 99.7064 80.8564C99.7893 81.253 100.131 82.8799 99.2532 84.3652Z" fill="#D4687E"/>
<path d="M39.4754 85.5673C39.39 86.2065 39.0904 86.7742 38.6187 87.2423C38.7326 87.2989 38.8329 87.3556 38.9331 87.4122C39.9608 88.0083 40.4176 88.9172 40.1465 89.9678C39.8035 91.3447 38.8477 92.1538 37.6913 92.5948C36.478 93.0344 35.0368 93.0344 34.1083 92.9642C33.7517 92.9495 33.2664 92.8793 32.9383 92.8226C32.7389 92.7943 32.5817 92.6095 32.5953 92.4112C32.6523 91.1624 32.8529 86.9738 32.9383 85.2409C32.7241 85.2545 32.5532 85.284 32.4096 85.2976C32.2239 85.3124 32.053 85.2126 31.9961 85.0414C31.7819 84.5155 31.7249 83.9761 31.7683 83.4366C31.7831 83.2383 31.9391 83.0819 32.1248 83.0672C33.1525 82.9538 36.4359 82.6977 38.0058 83.3369C39.0768 83.7765 39.6042 84.5438 39.4754 85.5661V85.5673ZM37.7916 89.3581V89.3433C37.5056 89.1869 37.1206 89.0884 36.6786 89.0305C36.1648 88.9739 35.594 88.9874 35.0232 89.0872L34.9378 90.7621C35.3947 90.7621 35.9085 90.7338 36.4074 90.6205C37.0215 90.4924 37.6344 90.2375 37.877 89.6414C37.934 89.5281 37.8919 89.4148 37.7916 89.3569V89.3581ZM35.1371 86.6462C35.4801 86.5329 35.8503 86.39 36.2217 86.2065C36.4929 86.0649 36.764 85.8937 36.9782 85.6954C36.993 85.6806 37.0215 85.6523 37.0351 85.6387C37.0785 85.5956 37.0921 85.539 37.0785 85.4823C37.0636 85.4257 37.0215 85.369 36.9646 85.3542C36.608 85.2545 36.1648 85.1978 35.7091 85.1695C35.5519 85.1547 35.381 85.1547 35.2089 85.1547L35.1371 86.6449V86.6462Z" fill="#D4687E"/>
<path d="M46.6502 88.2497C46.6502 88.2497 46.5648 90.2091 46.5363 90.9469C46.5363 91.1168 46.4224 91.2732 46.2503 91.3163C45.6647 91.4727 45.0803 91.4444 44.5231 91.203C44.3659 91.1316 44.2805 90.9764 44.2805 90.82C44.2953 90.6217 44.309 90.3224 44.309 89.9961H43.0535C43.0535 90.251 43.0684 90.5072 43.082 90.7633C43.0969 90.9333 42.9817 91.0897 42.8257 91.1611C42.255 91.3594 41.6978 91.3594 41.1271 91.2178C40.9562 91.1747 40.8274 91.0331 40.8274 90.8483C40.799 90.1956 40.7556 89.4714 40.742 88.8889C40.742 88.4209 40.742 88.023 40.7705 87.81C40.8992 86.5747 41.4836 85.6941 42.198 85.2113C42.8975 84.7285 43.7258 84.6005 44.4959 84.8283C45.0382 84.9847 45.5953 85.3542 46.0089 85.9786C46.3803 86.5328 46.6514 87.2853 46.6514 88.2509L46.6502 88.2497ZM44.3956 88.2497C44.3808 87.9652 44.3523 87.7102 44.2669 87.4972C44.1666 87.241 44.0391 87.0292 43.8533 86.986C43.6391 86.9146 43.425 87.0575 43.2826 87.2705C43.1402 87.4688 43.0548 87.725 43.0251 88.0514C42.9966 88.1795 42.9966 88.3777 43.0102 88.6191H44.3659C44.3808 88.3925 44.3808 88.2497 44.3944 88.2497H44.3956Z" fill="#D4687E"/>
<path d="M60.4426 92.0984C60.4278 92.2548 60.3287 92.4112 60.1566 92.4531C60.0712 92.4962 59.9573 92.5245 59.8855 92.5529C58.843 92.8792 57.9441 92.9507 57.1592 92.8792C55.5744 92.7511 54.3908 91.9986 53.2059 91.2609C52.4346 90.7781 51.4218 90.1389 50.3373 90.054C50.0377 90.2954 49.8086 90.4653 49.6377 90.5651C49.5944 91.4026 49.5659 92.0701 49.5659 92.4248C49.5511 92.5947 49.4372 92.7511 49.2663 92.7943C48.6807 92.9642 48.1099 92.9507 47.554 92.7376C47.3968 92.6662 47.2965 92.511 47.2965 92.3398C47.3535 90.9912 47.611 84.8579 47.6816 83.3947C47.6816 83.1965 47.8239 83.04 48.0245 83.0117C48.5953 82.9267 49.1239 82.9551 49.6377 83.0684C49.8235 83.125 49.9522 83.2814 49.9374 83.4797C49.9089 84.1608 49.8371 85.837 49.7665 87.5686C50.1379 87.2139 50.5378 86.7878 50.965 86.2619C51.6212 85.4663 52.2922 84.4724 52.9063 83.2667C52.9918 83.1102 53.149 83.0253 53.3198 83.0536C53.9191 83.1386 54.4193 83.38 54.8477 83.7778C54.99 83.8911 55.0185 84.0906 54.9479 84.2458C54.2484 85.6375 53.4635 86.773 52.7355 87.6819C52.5646 87.8802 52.4074 88.0649 52.265 88.2361C52.8642 88.4775 53.435 88.7756 53.9067 89.0601C54.7635 89.5576 55.562 90.1673 56.5327 90.4801C57.2038 90.6932 57.9738 90.7363 58.9309 90.4801C58.9742 90.4665 59.1884 90.4087 59.3444 90.352C59.4583 90.3237 59.5871 90.3385 59.6874 90.4087C60.216 90.7781 60.4587 91.3459 60.4439 92.0984H60.4426ZM61.1991 86.3481C61.1842 86.5181 61.1558 86.6609 61.0418 86.8026C60.97 86.8875 60.8425 86.9725 60.6419 86.9725L57.33 86.9577C57.33 86.9861 57.33 87.0144 57.3449 87.0427C57.4018 87.2558 57.5021 87.4257 57.6309 87.5538C57.7312 87.6388 58.0023 87.81 58.3874 87.7952C58.63 87.7952 58.9012 87.7102 59.2008 87.5391C59.3147 87.4824 59.4571 87.4676 59.5858 87.5391C60.1715 87.8371 60.4996 88.3347 60.5998 89.0441C60.6283 89.2005 60.5565 89.3569 60.4141 89.4419C59.6861 89.8815 59.0151 90.0379 58.4307 90.0527C57.2322 90.0811 56.3755 89.4702 56.061 89.1721C55.6611 88.7891 55.333 88.278 55.1621 87.6388C55.0334 87.1708 54.9913 86.6301 55.0482 86.034C55.177 84.7421 55.8047 83.8332 56.5612 83.3085C57.2743 82.8122 58.1459 82.6693 58.9445 82.9107C59.5871 83.109 60.3151 83.6349 60.7571 84.4724C60.9849 84.8837 61.157 85.3948 61.1991 85.9626C61.1991 86.0057 61.2139 86.204 61.1991 86.3456V86.3481ZM58.8021 85.5821C58.7873 85.5685 58.7873 85.5537 58.7737 85.5389C58.6449 85.3123 58.474 85.1276 58.3032 85.0709C58.0469 84.9995 57.7745 85.1559 57.59 85.4121C57.5616 85.4687 57.5182 85.5254 57.4898 85.5821H58.8034H58.8021Z" fill="#D4687E"/>
<path d="M66.5427 92.7524C65.7008 92.4395 64.8156 91.6021 64.2448 90.4099C63.9737 90.5663 63.7595 90.6661 63.6592 90.7227C63.6158 91.4752 63.5874 92.0996 63.5737 92.426C63.5737 92.596 63.445 92.7524 63.2877 92.7955C62.7021 92.9654 62.1314 92.9519 61.5755 92.7388C61.4182 92.6674 61.3043 92.5122 61.3192 92.341C61.3625 91.4469 61.7042 83.7938 61.7191 83.6238C61.7339 83.2974 62.0051 83.0413 62.3332 83.0277C62.5907 83.0129 62.847 83.0129 62.9609 83.0129C63.8597 83.0129 64.8738 83.0696 65.7157 83.2827C66.9005 83.5807 67.7858 84.2051 68.1275 85.0722C68.484 85.9946 68.2129 86.9885 67.4849 87.8974C67.2856 88.1536 67.0429 88.4085 66.7717 88.6364C66.5142 88.863 66.3297 89.0342 66.1577 89.1758C66.4152 89.9 66.8287 90.4542 67.314 90.6242C67.4564 90.6808 67.5716 90.5811 67.6706 90.4111C67.813 90.198 67.9269 89.9283 68.0136 89.5872C68.042 89.4591 68.0705 89.3322 68.099 89.2041C68.1275 89.0625 68.2277 88.948 68.3565 88.9061C68.8988 88.7214 69.7556 88.8347 70.1839 89.1623C70.2978 89.262 70.3548 89.4037 70.3263 89.5453C70.3115 89.6586 70.283 89.7719 70.2694 89.8581C69.6417 92.7265 67.9145 93.2376 66.5439 92.7548L66.5427 92.7524ZM66.014 85.8801C65.9286 85.6818 65.6711 85.6239 65.4148 85.5389C64.9864 85.3973 64.5011 85.3259 64.0021 85.2828H63.9167L63.7743 88.0662C64.1594 87.8248 64.5878 87.5267 64.9877 87.2004C65.3306 86.9306 65.6302 86.6326 65.8444 86.3198C65.9447 86.1633 66.0722 86.0353 66.0153 85.8801H66.014Z" fill="#D4687E"/>
<path d="M74.1991 89.8804C74.3415 89.7104 74.4702 89.5257 74.5841 89.3126C74.3279 89.3693 74.0852 89.384 73.8562 89.3693C73.356 89.3545 72.3865 89.0848 71.6152 87.7362C71.1732 86.927 70.7584 85.6203 70.673 83.5475C70.6582 83.3776 70.7733 83.2064 70.959 83.1497C71.5013 82.9933 72.0584 82.9798 72.6143 83.1214C72.8001 83.1645 72.914 83.3061 72.9288 83.4909C72.9721 84.4564 73.0861 85.2089 73.2569 85.7915C73.4142 86.3309 73.5999 86.7004 73.7992 86.9418C73.871 87.0268 73.9849 87.0982 74.0134 87.1265C74.1137 87.1265 74.2127 87.0551 74.3279 86.9701C74.5842 86.7435 74.8268 86.374 75.041 85.8481C75.2837 85.2237 75.483 84.4146 75.6118 83.3776C75.6266 83.2076 75.769 83.0647 75.9547 83.0364C76.5119 82.9514 77.0678 83.0081 77.5964 83.2064C77.7673 83.263 77.8676 83.433 77.854 83.6042V83.619C77.8391 87.6943 76.9972 90.0368 75.956 91.3004C74.2288 93.4163 71.8591 93.0751 70.3041 92.1662C70.1468 92.0664 70.0614 91.8817 70.1183 91.6982C70.3177 91.1021 70.6322 90.6477 71.0605 90.293C71.1893 90.1932 71.375 90.1796 71.5174 90.2646C72.2739 90.676 73.3869 90.8755 74.2003 89.8816L74.1991 89.8804Z" fill="#D4687E"/>
</g>
<defs>
<clipPath id="clip0_19_47">
<rect width="146" height="93" fill="white"/>
</clipPath>
</defs>
</svg>
